<svg viewBox="0 0 271 11" xmlns="http://www.w3.org/2000/svg">
<path d="M243.9 11C236.372 11 232.458 8.32858 229.145 5.97142C225.833 3.77142 222.822 1.57143 216.8 1.57143C210.778 1.57143 207.767 3.77142 204.455 5.97142C201.142 8.32858 197.228 11 189.7 11C182.172 11 178.258 8.32858 174.946 5.97142C171.633 3.77142 168.622 1.57143 162.6 1.57143C156.578 1.57143 153.567 3.77142 150.254 5.97142C146.942 8.32858 143.028 11 135.5 11C127.972 11 124.058 8.32858 120.746 5.97142C117.433 3.77142 114.422 1.57143 108.4 1.57143C102.378 1.57143 99.3667 3.77142 96.0545 5.97142C92.7422 8.32858 88.8278 11 81.3 11C73.7722 11 69.8578 8.32858 66.5455 5.97142C63.2333 3.77142 60.2222 1.57143 54.2 1.57143C48.1778 1.57143 45.1667 3.77142 41.8545 5.97142C38.5422 8.32858 34.6278 11 27.1 11C19.5722 11 15.6578 8.32858 12.3456 5.97142C9.03333 3.77142 6.02222 1.57143 0 1.57143V0C7.52778 0 11.4422 2.67142 14.7544 5.02858C18.0667 7.22858 21.0778 9.42858 27.1 9.42858C33.1222 9.42858 36.1333 7.22858 39.4455 5.02858C42.7578 2.67142 46.6722 0 54.2 0C61.7278 0 65.6422 2.67142 68.9545 5.02858C72.2667 7.22858 75.2778 9.42858 81.3 9.42858C87.3222 9.42858 90.3333 7.22858 93.6455 5.02858C96.9578 2.67142 100.872 0 108.4 0C115.928 0 119.842 2.67142 123.154 5.02858C126.467 7.22858 129.478 9.42858 135.5 9.42858C141.522 9.42858 144.533 7.22858 147.846 5.02858C151.158 2.67142 155.072 0 162.6 0C170.128 0 174.042 2.67142 177.354 5.02858C180.667 7.22858 183.678 9.42858 189.7 9.42858C195.722 9.42858 198.733 7.22858 202.045 5.02858C205.358 2.67142 209.272 0 216.8 0C224.328 0 228.242 2.67142 231.555 5.02858C234.867 7.22858 237.878 9.42858 243.9 9.42858C249.922 9.42858 252.933 7.22858 256.245 5.02858C259.558 2.67142 263.472 0 271 0V1.57143C264.978 1.57143 261.967 3.77142 258.655 5.97142C255.342 8.32858 251.428 11 243.9 11Z" fill="#D9D9D9"/>
</svg>
